<svg xmlns="http://www.w3.org/2000/svg" width="72.067" height="62.46" viewBox="0 0 72.067 62.46"><defs><style>.a{fill:#23c6c8;fill-rule:evenodd;}</style></defs><g transform="translate(-205.114 -614.569)"><path class="a" d="M277.181,620.571v40.841a6.028,6.028,0,0,1-6,6.011H250.759c0,3.187,2.4,5.893,2.4,7.2a2.42,2.42,0,0,1-2.4,2.406H231.536a2.422,2.422,0,0,1-2.406-2.406c0-1.389,2.406-3.941,2.406-7.209l-20.421.009a6.022,6.022,0,0,1-6-6.011V620.571a6.014,6.014,0,0,1,6-6h60.063A6.02,6.02,0,0,1,277.181,620.571Zm-4.8,40.215V620.907a1.438,1.438,0,0,0-1.2-1.534H211.116a1.438,1.438,0,0,0-1.2,1.534v39.879a1.438,1.438,0,0,0,1.2,1.534h60.063A1.438,1.438,0,0,0,272.378,660.786Z"/></g></svg>