<svg xmlns="http://www.w3.org/2000/svg" width="72" height="51.429" viewBox="0 0 72 51.429"><defs><style>.a{fill:#23c6c8;}</style></defs><g transform="translate(-4 -12)"><path class="a" d="M72.143,12H7.857A3.857,3.857,0,0,0,4,15.857V59.571a3.857,3.857,0,0,0,3.857,3.857H72.143A3.857,3.857,0,0,0,76,59.571V15.857A3.857,3.857,0,0,0,72.143,12ZM6.571,15.857a1.286,1.286,0,0,1,1.286-1.286H72.143a1.286,1.286,0,0,1,1.286,1.286v3.857H6.571ZM73.429,59.571a1.286,1.286,0,0,1-1.286,1.286H7.857a1.286,1.286,0,0,1-1.286-1.286V22.286H73.429Z"/><path class="a" d="M55.286,15h0a1.286,1.286,0,1,0,1.286,1.286A1.286,1.286,0,0,0,55.286,15Z" transform="translate(14.286 0.857)"/><path class="a" d="M51.286,15h0a1.286,1.286,0,1,0,1.286,1.286A1.286,1.286,0,0,0,51.286,15Z" transform="translate(13.143 0.857)"/><path class="a" d="M47.286,15h0a1.286,1.286,0,1,0,1.286,1.286A1.286,1.286,0,0,0,47.286,15Z" transform="translate(12 0.857)"/><path class="a" d="M9.286,24.571h9a1.286,1.286,0,1,0,0-2.571h-9a1.286,1.286,0,0,0,0,2.571Z" transform="translate(1.143 2.857)"/><path class="a" d="M9.286,28.571h9a1.286,1.286,0,1,0,0-2.571h-9a1.286,1.286,0,0,0,0,2.571Z" transform="translate(1.143 4)"/><path class="a" d="M9.286,32.571h9a1.286,1.286,0,1,0,0-2.571h-9a1.286,1.286,0,1,0,0,2.571Z" transform="translate(1.143 5.143)"/><path class="a" d="M9.286,36.571h9a1.286,1.286,0,1,0,0-2.571h-9a1.286,1.286,0,1,0,0,2.571Z" transform="translate(1.143 6.286)"/><path class="a" d="M39.28,37.143H50.62a1.276,1.276,0,0,0,1.26-1.517,15.31,15.31,0,0,0-3.857-7.714l1.067-2.34h5.619a1.286,1.286,0,0,0,0-2.571H48.28a1.286,1.286,0,0,0-1.157.72L45.966,26.1a15.419,15.419,0,0,0-6.429-2.841,1.276,1.276,0,0,0-1.517,1.26v11.34A1.286,1.286,0,0,0,39.28,37.143Zm1.286-10.98a12.951,12.951,0,0,1,8.409,8.409H40.566Z" transform="translate(9.72 3.143)"/><path class="a" d="M55.286,25.571h0A1.286,1.286,0,1,0,54,24.286,1.286,1.286,0,0,0,55.286,25.571Z" transform="translate(14.286 3.143)"/><path class="a" d="M56.143,26H52.286a1.286,1.286,0,0,0,0,2.571h3.857a1.286,1.286,0,0,0,0-2.571Z" transform="translate(13.429 4)"/><path class="a" d="M29.447,48.1l-1.53,3.137H22.286a1.286,1.286,0,0,0,0,2.571h6.429a1.286,1.286,0,0,0,1.157-.72l1.53-3.137a15.429,15.429,0,0,0,25.341-8.769,1.276,1.276,0,0,0-1.26-1.517h-15.2v-15.2a1.276,1.276,0,0,0-1.517-1.26,15.429,15.429,0,0,0-9.244,24.789Zm8.267-21.986V40.948A1.286,1.286,0,0,0,39,42.234H53.837A12.857,12.857,0,1,1,37.714,26.111Z" transform="translate(4.857 3.195)"/><path class="a" d="M18.286,47.571a1.286,1.286,0,1,0,0-2.571h0a1.286,1.286,0,0,0,0,2.571Z" transform="translate(3.714 9.429)"/><path class="a" d="M18.286,44.571h3.857a1.286,1.286,0,0,0,0-2.571H18.286a1.286,1.286,0,0,0,0,2.571Z" transform="translate(3.714 8.571)"/></g></svg>