<svg xmlns="http://www.w3.org/2000/svg" width="81.404" height="80.46" viewBox="0 0 81.404 80.46"><defs><style>.a{fill:#23c6c8;}</style></defs><g transform="translate(-4 -4)"><path class="a" d="M56.092,73.11a4.545,4.545,0,0,1-.77,0,4.364,4.364,0,0,1-2.907-2.021l-1.962-3.227L31.714,60.987a3.88,3.88,0,0,1-2.529-3.329,3.751,3.751,0,0,1,3.428-4.047A3.821,3.821,0,0,1,33.1,53.6h0l8.838.392a.158.158,0,0,0,.145-.073.261.261,0,0,0,.015-.2c-2.384-3.605-4.245-6.585-6.047-9.449s-3.881-6.222-6.5-10.175a3.285,3.285,0,0,1,.862-4.566c.083-.057.169-.109.257-.158a3.356,3.356,0,0,1,4.056.727L46.353,42.453l13.184-3.2a4.084,4.084,0,0,1,4.8,2.689l4.623,14.144,1.09,1.163a4.361,4.361,0,0,1-.222,6.163c-.087.081-.179.158-.272.233L58.8,72.18A4.361,4.361,0,0,1,56.092,73.11ZM32.921,56.539a.858.858,0,0,0-.611.262.812.812,0,0,0-.233.654.957.957,0,0,0,.625.829l19.173,6.963a1.451,1.451,0,0,1,.741.611L54.856,69.5a1.453,1.453,0,0,0,2,.488,1.485,1.485,0,0,0,.14-.1l10.8-8.533a1.448,1.448,0,0,0,.16-2.137L66.66,57.774a1.371,1.371,0,0,1-.32-.538L61.6,42.787a1.134,1.134,0,0,0-1.337-.7L46.178,45.52a1.452,1.452,0,0,1-1.454-.407L32.514,32.132a.467.467,0,0,0-.523-.174.336.336,0,0,0-.189.233.484.484,0,0,0,.073.334c2.646,3.983,4.637,7.166,6.556,10.248,1.788,2.907,3.634,5.815,6,9.405a3.068,3.068,0,0,1,.262,2.907,3,3,0,0,1-2.907,1.832l-8.838-.392Z" transform="translate(11.33 11.334)"/><path class="a" d="M43.132,62.145H8.361A4.361,4.361,0,0,1,4,57.784V8.361A4.361,4.361,0,0,1,8.361,4H81.043A4.361,4.361,0,0,1,85.4,8.361V57.784a4.361,4.361,0,0,1-2.035,3.692,1.454,1.454,0,1,1-1.7-2.359c.042-.029.084-.057.129-.083a1.454,1.454,0,0,0,.7-1.25V8.361a1.454,1.454,0,0,0-1.454-1.454H8.361A1.454,1.454,0,0,0,6.907,8.361V57.784a1.454,1.454,0,0,0,1.454,1.454H43.132a1.454,1.454,0,0,1,0,2.907Z"/><path class="a" d="M60.794,21.907H24.454a1.454,1.454,0,0,1,0-2.907H60.794a1.454,1.454,0,1,1,0,2.907Z" transform="translate(8.619 6.805)"/><path class="a" d="M46.258,17.907h-21.8a1.454,1.454,0,0,1,0-2.907h21.8a1.454,1.454,0,1,1,0,2.907Z" transform="translate(8.619 4.99)"/><path class="a" d="M53.99,34.907H39.454a1.454,1.454,0,1,1,0-2.907H53.99a1.454,1.454,0,1,1,0,2.907Z" transform="translate(15.424 12.702)"/><path class="a" d="M28.815,34.907H24.454a1.454,1.454,0,0,1,0-2.907h4.361a1.454,1.454,0,0,1,0,2.907Z" transform="translate(8.619 12.702)"/><path class="a" d="M40.815,30.907H36.454a1.454,1.454,0,1,1,0-2.907h4.361a1.454,1.454,0,1,1,0,2.907Z" transform="translate(14.063 10.887)"/><path class="a" d="M27.361,30.907H24.454a1.454,1.454,0,0,1,0-2.907h2.907a1.454,1.454,0,1,1,0,2.907Z" transform="translate(8.619 10.887)"/><path class="a" d="M76.692,10.907H21.454a1.454,1.454,0,0,1,0-2.907H76.692a1.454,1.454,0,1,1,0,2.907Z" transform="translate(7.258 1.815)"/><path class="a" d="M10.454,10.907h-.291L9.9,10.819l-.262-.131-.218-.174A1.581,1.581,0,0,1,9,9.453a1.527,1.527,0,0,1,.422-1.032,1.452,1.452,0,0,1,1.584-.305,1.693,1.693,0,0,1,.48.305l.174.218a1.1,1.1,0,0,1,.131.262.918.918,0,0,1,.116.262,2.424,2.424,0,0,1,0,.291,1.23,1.23,0,0,1-.116.552,1.693,1.693,0,0,1-.305.48A1.527,1.527,0,0,1,10.454,10.907Z" transform="translate(2.268 1.815)"/><path class="a" d="M13.455,10.91h-.291l-.262-.087-.262-.131-.218-.174a1.693,1.693,0,0,1-.305-.48A1.453,1.453,0,0,1,12,9.456a1.941,1.941,0,0,1,0-.291.925.925,0,0,1,.087-.262,1.1,1.1,0,0,1,.131-.262l.174-.218a1.453,1.453,0,0,1,2.055-.009l.009.009.174.218a1.1,1.1,0,0,1,.131.262.906.906,0,0,1,.145.262,1.941,1.941,0,0,1,0,.291,1.469,1.469,0,0,1-.116.552,1.693,1.693,0,0,1-.305.48l-.218.174-.262.131-.262.116Z" transform="translate(3.627 1.812)"/><path class="a" d="M16.454,10.9h-.291L15.9,10.81l-.262-.131-.218-.174a1.693,1.693,0,0,1-.305-.48,1.366,1.366,0,0,1,0-1.1,1.408,1.408,0,0,1,1.89-.785,1.345,1.345,0,0,1,.48.305,1.693,1.693,0,0,1,.305.48,1.442,1.442,0,0,1,.116.523,1.527,1.527,0,0,1-.422,1.032,1.345,1.345,0,0,1-.48.305A1.469,1.469,0,0,1,16.454,10.9Z" transform="translate(4.99 1.824)"/><path class="a" d="M16.995,28.99a7.995,7.995,0,1,1,7.995-7.995A7.994,7.994,0,0,1,16.995,28.99Zm0-13.083a5.088,5.088,0,1,0,5.088,5.088A5.088,5.088,0,0,0,16.995,15.907Z" transform="translate(2.268 4.083)"/><path class="a" d="M16.995,41.99a7.995,7.995,0,1,1,7.995-7.995A7.994,7.994,0,0,1,16.995,41.99Zm0-13.083a5.088,5.088,0,1,0,5.088,5.088A5.088,5.088,0,0,0,16.995,28.907Z" transform="translate(2.268 9.98)"/><path class="a" d="M16.363,24.63a1.452,1.452,0,0,1-1.032-.422L12.423,21.3a1.46,1.46,0,0,1,2.064-2.064l1.773,1.788,6.251-7.5a1.455,1.455,0,1,1,2.239,1.861h0l-7.268,8.722a1.452,1.452,0,0,1-1.047.523Z" transform="translate(3.627 4.082)"/></g></svg>