<svg xmlns="http://www.w3.org/2000/svg" width="83.553" height="83.553" viewBox="0 0 83.553 83.553"><defs><style>.a{fill:#23c6c8;}</style></defs><g transform="translate(-4 -4)"><path class="a" d="M81.585,67.744H9.968A5.968,5.968,0,0,1,4,61.776V25.968A5.968,5.968,0,0,1,9.968,20a1.492,1.492,0,1,1,0,2.984,2.983,2.983,0,0,0-2.984,2.984V61.776A2.983,2.983,0,0,0,9.968,64.76H81.585a2.983,2.983,0,0,0,2.984-2.984V25.968a2.983,2.983,0,0,0-2.984-2.984,1.492,1.492,0,0,1,0-2.984,5.968,5.968,0,0,1,5.968,5.968V61.776A5.968,5.968,0,0,1,81.585,67.744Z" transform="translate(0 7.872)"/><path class="a" d="M23.206,20.412a8.206,8.206,0,1,1,8.206-8.206A8.205,8.205,0,0,1,23.206,20.412Zm0-13.428a5.222,5.222,0,1,0,5.222,5.222A5.222,5.222,0,0,0,23.206,6.984Z" transform="translate(5.412)"/><path class="a" d="M30.4,48.837H16.968A5.968,5.968,0,0,1,11,42.869V27.948A8.952,8.952,0,0,1,19.952,19H38.677L47.912,8.433a4.025,4.025,0,1,1,6.356,4.939L43.556,28.8a1.5,1.5,0,0,1-.746.567l-6.445,2.148V42.869A5.968,5.968,0,0,1,30.4,48.837ZM19.952,21.98a5.968,5.968,0,0,0-5.968,5.968v14.92a2.983,2.983,0,0,0,2.984,2.984H30.4a2.983,2.983,0,0,0,2.984-2.984V30.44a1.494,1.494,0,0,1,1.015-1.492l7-2.328L51.836,11.6a1.03,1.03,0,0,0,0-1.074,1,1,0,0,0-.9-.477,1.027,1.027,0,0,0-.776.358l-9.7,11.071a1.491,1.491,0,0,1-1.119.507Zm22.38,5.968" transform="translate(3.444 1.416)"/><path class="a" d="M53.254,10.984H46.092a1.492,1.492,0,0,1,0-2.984h7.162a1.492,1.492,0,0,1,0,2.984Z" transform="translate(19.976 1.968)"/><path class="a" d="M41.492,15.983a1.508,1.508,0,0,1-.567-.119,1.738,1.738,0,0,1-.492-.313A1.567,1.567,0,0,1,40,14.491a1.508,1.508,0,0,1,.119-.567,1.345,1.345,0,0,1,.806-.806,1.491,1.491,0,0,1,1.626.313,1.738,1.738,0,0,1,.313.492,1.477,1.477,0,0,1-1.373,2.059Z" transform="translate(17.712 4.429)"/><path class="a" d="M56.428,15.984H44.492a1.492,1.492,0,0,1,0-2.984H56.428a1.492,1.492,0,0,1,0,2.984Z" transform="translate(19.189 4.428)"/><path class="a" d="M41.489,20.984a1.493,1.493,0,1,1,1.059-.433A1.567,1.567,0,0,1,41.489,20.984Z" transform="translate(17.715 6.888)"/><path class="a" d="M56.428,20.984H44.492a1.492,1.492,0,0,1,0-2.984H56.428a1.492,1.492,0,0,1,0,2.984Z" transform="translate(19.189 6.888)"/><path class="a" d="M41.492,25.993a1.567,1.567,0,0,1-1.059-.433,1.5,1.5,0,0,1-.313-.492,1.4,1.4,0,0,1,0-1.134,1.738,1.738,0,0,1,.313-.492,1.49,1.49,0,0,1,1.358-.433l.269.09a.829.829,0,0,1,.254.134l.239.179a1.738,1.738,0,0,1,.313.492,1.4,1.4,0,0,1,0,1.134,1.5,1.5,0,0,1-.313.492,1.558,1.558,0,0,1-.239.179.829.829,0,0,1-.254.134l-.269.149Z" transform="translate(17.712 9.339)"/><path class="a" d="M56.428,25.984H44.492a1.492,1.492,0,0,1,0-2.984H56.428a1.492,1.492,0,0,1,0,2.984Z" transform="translate(19.189 9.348)"/><path class="a" d="M59.92,39.984H46.492a1.492,1.492,0,1,1,0-2.984H59.92a1.492,1.492,0,0,1,0,2.984Z" transform="translate(20.173 16.236)"/><path class="a" d="M55.744,39.984H9.492a1.492,1.492,0,1,1,0-2.984H55.744a1.492,1.492,0,1,1,0,2.984Z" transform="translate(1.968 16.236)"/><path class="a" d="M44.968,45.936a5.968,5.968,0,1,1,5.968-5.968A5.968,5.968,0,0,1,44.968,45.936Zm0-8.952a2.984,2.984,0,1,0,2.984,2.984A2.983,2.983,0,0,0,44.968,36.984Z" transform="translate(17.22 14.76)"/><path class="a" d="M36.7,64.92h-5.58a2.984,2.984,0,0,1-3.008-2.96,3.2,3.2,0,0,1,.024-.4l1.3-10.25A1.491,1.491,0,0,1,30.928,50H36.9a1.491,1.491,0,0,1,1.492,1.313l1.283,10.25A2.983,2.983,0,0,1,37.084,64.9a2.938,2.938,0,0,1-.4.024ZM32.226,52.984l-1.119,8.952h5.58l-1.119-8.952Z" transform="translate(11.864 22.633)"/><path class="a" d="M86.061,46.984H5.492a1.492,1.492,0,1,1,0-2.984H86.061a1.492,1.492,0,0,1,0,2.984Z" transform="translate(0 19.681)"/><path class="a" d="M32.492,49.994h-.3a.949.949,0,0,1-.269-.09l-.269-.134-.224-.179A1.573,1.573,0,0,1,31,48.5a1.627,1.627,0,0,1,.433-1.059l.224-.179.269-.134a.942.942,0,0,1,.269-.119,1.445,1.445,0,0,1,1.671.9,1.249,1.249,0,0,1,.119.6A1.493,1.493,0,0,1,32.492,49.994Z" transform="translate(13.284 21.146)"/></g></svg>