<svg xmlns="http://www.w3.org/2000/svg" width="191.486" height="39.285" viewBox="0 0 191.486 39.285"><defs><style>.a{fill:#277e56;}.b{fill:#ffbd00;}.c{fill:#1b6f9c;}.d{fill:#6371b3;}.e{fill:#3c9d4c;}.f{fill:#45a573;}.g{fill:#216a43;}.h{fill:#003d65;}.i,.j,.k,.l{fill:#fff;}.j,.l{font-size:8px;font-family:OpenSans-Light, Open Sans;font-weight:300;}.j{letter-spacing:-0.003em;}.k{stroke:#d6006c;stroke-miterlimit:10;stroke-width:0.15px;stroke-dasharray:1;}</style></defs><g transform="translate(-545 -214)"><path class="a" d="M303.17,409.266h37.358l-18.679,18.848Z" transform="translate(241.83 -176.744)"/><path class="b" d="M340.528,405.349H303.17L321.3,387.058a.774.774,0,0,1,1.1,0l2.684,2.707Z" transform="translate(241.83 -172.827)"/><path class="c" d="M332.566,407.419H315.4a8.728,8.728,0,0,1,8.582-8.731,8.4,8.4,0,0,1,3.171.616,8.63,8.63,0,0,1,3.8,3.033A8.79,8.79,0,0,1,332.566,407.419Z" transform="translate(239.695 -174.897)"/><path class="d" d="M319.786,408.325" transform="translate(238.93 -176.579)"/><path class="d" d="M319.786,408.24" transform="translate(238.93 -176.565)"/><path class="e" d="M310.039,409.191" transform="translate(240.631 -176.731)"/><path class="e" d="M329.465,406.018" transform="translate(237.24 -176.177)"/><path class="f" d="M321.849,428.115,303.17,409.266h12.472Z" transform="translate(241.83 -176.744)"/><path class="g" d="M325.8,428.115l18.679-18.848H332.007Z" transform="translate(237.88 -176.744)"/><path class="h" d="M332.744,402.336a8.626,8.626,0,0,0-3.8-3.034,8.4,8.4,0,0,0-3.171-.616c-.045,0-.09,0-.135,0,.225.07.447.149.664.237a9.021,9.021,0,0,1,3.976,3.174,9.162,9.162,0,0,1,1.005,1.839,8.831,8.831,0,0,1,.715,3.477h2.354A8.785,8.785,0,0,0,332.744,402.336Z" transform="translate(237.908 -174.897)"/><path class="f" d="M308.5,415.164a38.073,38.073,0,0,0-2.43,2.976,30.62,30.62,0,0,1,2.937-2.465Z" transform="translate(241.324 -177.773)"/><path class="b" d="M342.27,403.053l.525.53a30.861,30.861,0,0,1,4.55.557A30.9,30.9,0,0,0,342.27,403.053Z" transform="translate(235.005 -175.659)"/><path class="i" d="M331.713,397.884a31.947,31.947,0,0,0-25.7,17.3,31.61,31.61,0,0,1,29.933-13.035l0-.1-4.079-4.164Z" transform="translate(241.335 -174.757)"/><text class="j" transform="translate(693.486 238.831)"><tspan x="0" y="0">Nacional de</tspan></text><path class="k" d="M368.036,427.816" transform="translate(230.507 -179.982)"/><text class="l" transform="translate(694.433 226.314)"><tspan x="0" y="0">Agência</tspan></text><path class="i" d="M421.884,394.373c-.043,0-.084.009-.126.012s-.1-.015-.149-.015h-4.083v23.32h-.149l-13.289-23.32h-8.381v31.136h5.937V401.953h.192l13.224,23.554h8.445v-29.25c0-.033-.008-.063-.01-.095a1.549,1.549,0,0,0-1.613-1.789Z" transform="translate(225.676 -174.144)"/><path class="i" d="M465.949,395.993a1.62,1.62,0,0,0-1.621-1.62c-.042,0-.082.009-.123.012s-.094-.015-.144-.015h-7.813l-6.835,23.81h-.253l-6.835-23.81h-9.7v31.136h5.905V401.079h.192l6.58,24.428h7.582l6.786-24.385h.192c0,3.939.021,6.3,0,7.206v17.179h6.085v-29.25c0-.045-.011-.088-.013-.132S465.949,396.038,465.949,395.993Z" transform="translate(219.231 -174.144)"/><path class="i" d="M375.135,394.357h-9.721l-9.44,31.148h7.4l2.184-7.209h8.159l-1.791-5.863h-4.59l3.7-12.213L378.7,425.5h7.4l-9-29.695A2.052,2.052,0,0,0,375.135,394.357Z" transform="translate(232.612 -174.141)"/><text class="l" transform="translate(693.485 251.285)"><tspan x="0" y="0">Mineração</tspan></text></g></svg>